<?xml version="1.0" encoding="utf-8"?>
<!-- Generator: Adobe Illustrator 16.0.0, SVG Export Plug-In . SVG Version: 6.00 Build 0)  -->
<!DOCTYPE svg PUBLIC "-//W3C//DTD SVG 1.1//EN" "http://www.w3.org/Graphics/SVG/1.1/DTD/svg11.dtd">
<svg version="1.1" id="Layer_1" xmlns="http://www.w3.org/2000/svg" xmlns:xlink="http://www.w3.org/1999/xlink" x="0px" y="0px"
	 width="190px" height="60px" viewBox="0 0 190 60" enable-background="new 0 0 190 60" xml:space="preserve">
<g enable-background="new    ">
	<path fill="#FFFFFF" d="M18.021,7.604h9.141v26.091c0,2.42-0.562,4.579-1.685,6.478c-1.123,1.897-2.69,3.368-4.701,4.413
		c-2.011,1.045-4.253,1.567-6.725,1.567c-4.144,0-7.365-1.045-9.663-3.134c-2.298-2.09-3.447-5.05-3.447-8.88h9.193
		c0,1.741,0.3,3.003,0.901,3.787c0.601,0.783,1.606,1.175,3.017,1.175c1.271,0,2.25-0.475,2.938-1.423
		c0.688-0.949,1.031-2.276,1.031-3.983V7.604z"/>
	<path fill="#FFFFFF" d="M32.463,10.086c0-1.254,0.453-2.281,1.358-3.082c0.905-0.801,2.081-1.201,3.526-1.201
		c1.445,0,2.62,0.4,3.526,1.201c0.905,0.801,1.358,1.828,1.358,3.082c0,1.253-0.453,2.281-1.358,3.082
		c-0.906,0.801-2.081,1.201-3.526,1.201c-1.445,0-2.621-0.4-3.526-1.201C32.916,12.367,32.463,11.339,32.463,10.086z M41.813,45.631
		h-8.827V17.372h8.827V45.631z"/>
	<path fill="#FFFFFF" d="M46.123,31.24c0-2.82,0.549-5.332,1.646-7.534c1.097-2.203,2.672-3.896,4.727-5.08
		c2.054-1.184,4.466-1.776,7.234-1.776c4.231,0,7.565,1.311,10.003,3.931c2.438,2.621,3.656,6.186,3.656,10.695v0.313
		c0,4.405-1.223,7.9-3.669,10.485c-2.446,2.586-5.759,3.879-9.938,3.879c-4.022,0-7.252-1.206-9.689-3.617s-3.752-5.681-3.943-9.807
		L46.123,31.24z M54.924,31.789c0,2.611,0.409,4.527,1.228,5.745c0.818,1.22,2.028,1.829,3.63,1.829
		c3.134,0,4.736-2.412,4.806-7.235V31.24c0-5.066-1.619-7.6-4.858-7.6c-2.942,0-4.536,2.185-4.779,6.555L54.924,31.789z"/>
	<path fill="#FFFFFF" d="M89.711,7.604l8.488,26.457l8.462-26.457h12.066v38.026h-9.193v-8.88l0.888-18.178l-9.192,27.058h-6.06
		l-9.219-27.083l0.888,18.203v8.88h-9.167V7.604H89.711z"/>
	<path fill="#FFFFFF" d="M140.065,45.631c-0.313-0.574-0.593-1.419-0.836-2.533c-1.619,2.037-3.883,3.056-6.791,3.056
		c-2.663,0-4.927-0.806-6.79-2.416s-2.795-3.634-2.795-6.072c0-3.064,1.132-5.38,3.396-6.947c2.264-1.566,5.554-2.351,9.872-2.351
		h2.717v-1.496c0-2.606-1.123-3.91-3.369-3.91c-2.09,0-3.135,1.033-3.135,3.098h-8.801c0-2.73,1.162-4.948,3.486-6.652
		s5.289-2.557,8.893-2.557c3.604,0,6.451,0.88,8.541,2.639c2.089,1.759,3.16,4.17,3.212,7.234v12.51
		c0.035,2.595,0.435,4.579,1.201,5.954v0.444H140.065z M134.555,39.885c1.097,0,2.006-0.234,2.729-0.705
		c0.723-0.47,1.241-1.001,1.555-1.593v-4.519h-2.56c-3.064,0-4.597,1.376-4.597,4.127c0,0.801,0.27,1.449,0.81,1.945
		C133.03,39.637,133.719,39.885,134.555,39.885z"/>
	<path fill="#FFFFFF" d="M169.63,25.338l-2.898-0.209c-2.769,0-4.545,0.871-5.328,2.612v17.89h-8.802V17.372h8.253l0.287,3.631
		c1.48-2.769,3.543-4.153,6.19-4.153c0.939,0,1.758,0.104,2.455,0.313L169.63,25.338z"/>
	<path fill="#FFFFFF" d="M184.359,10.347v7.025h4.649v6.111h-4.649v12.928c0,1.063,0.191,1.803,0.575,2.221
		c0.383,0.418,1.14,0.627,2.271,0.627c0.871,0,1.602-0.053,2.194-0.157v6.294c-1.585,0.505-3.238,0.758-4.963,0.758
		c-3.029,0-5.267-0.714-6.712-2.142s-2.167-3.596-2.167-6.503V23.483h-3.604v-6.111h3.604v-7.025H184.359z"/>
</g>
</svg>
